<svg width="127" height="34" viewBox="0 0 127 34" fill="none" xmlns="http://www.w3.org/2000/svg">
<path d="M7.72 27H0.2V0.199999H24.16V6.96H7.72V10.96H23.56V17.68H7.72V27ZM33.6575 27H26.1375V6.84H33.1775V12.12H33.5775C34.1375 8.8 36.2175 6.44 40.2175 6.44C44.6575 6.44 46.4175 9.36 46.4175 13.4V17.4H38.8975V15.04C38.8975 13.36 38.2575 12.76 36.2975 12.76C34.2575 12.76 33.6575 13.36 33.6575 14.96V27ZM56.2925 27.4C50.6525 27.4 48.0125 24.12 48.0125 19.76V6.84H55.5325V17C55.5325 19.8 56.6125 20.68 60.0525 20.68C63.5325 20.68 64.3725 19.84 64.3725 17.24V6.84H71.8925V27H64.8525V20.88H64.4525C64.0125 24.24 61.7725 27.4 56.2925 27.4ZM81.6653 5H74.1453V0.199999H81.6653V5ZM81.6653 27H74.1453V6.84H81.6653V27ZM99.1472 27H93.8672C88.8272 27 85.8272 24.56 85.8272 19.32V13H82.8672V6.84H85.8272V3.36H93.3472V6.84H99.1472V13H93.3472V18.24C93.3472 19.84 93.8272 20.24 95.5472 20.24H99.1472V27ZM105.382 33.8H101.742V27H107.582C108.182 27 108.662 26.92 108.982 26.76L99.3422 6.84H107.902L111.382 14.76L112.822 19.4H113.342L114.662 14.68L117.662 6.84H126.062L116.502 27.8C114.342 32.56 111.262 33.8 105.382 33.8Z" fill="white"/>
</svg>
